<svg aria-hidden="true" style="position:absolute;width:0;height:0;overflow:hidden" xmlns="http://www.w3.org/2000/svg"><defs><symbol id="icon-group" viewBox="0 0 35 20"><path  d="m12.667 2.333 2.336 2.211-4.336-.003V15.27H22v-4.102l2.333 2.209V2.332H12.666zm9.23 8.576-6.623-6.27h6.623v6.27zm-2.056 2.793H12.46V6.487h.522v6.727h6.859v.488zM14.203 16.7l-.273.562-.273-.562h-.229l.398.749v.436h.207v-.436l.397-.749h-.228zm.343 1.185.096-.276h.459l.097.276h.215l-.448-1.185h-.185l-.447 1.185h.214zm.325-.933.172.491H14.7l.172-.492zm1.086.463a.267.267 0 0 0-.045.148v.002c0 .1.035.181.105.243s.164.093.281.093a.495.495 0 0 0 .303-.095l.067.079h.229l-.174-.206a.594.594 0 0 0 .102-.359h-.172c0 .08-.017.152-.05.217l-.229-.27.081-.059a.443.443 0 0 0 .122-.122l.001-.002a.262.262 0 0 0 .037-.135v-.007a.243.243 0 0 0-.083-.183.297.297 0 0 0-.2-.077h-.012.001c-.095 0-.171.027-.228.081s-.085.127-.085.22c0 .038.009.077.027.118.019.041.051.09.097.148a.68.68 0 0 0-.176.163zm.535.262a.304.304 0 0 1-.187.067h-.01a.195.195 0 0 1-.132-.052.176.176 0 0 1-.053-.127v-.007c0-.063.033-.12.098-.169l.025-.018.259.305zm-.213-.525c-.056-.069-.084-.126-.084-.172 0-.04.012-.072.034-.098a.115.115 0 0 1 .087-.039H16.325c.033 0 .062.013.084.033a.105.105 0 0 1 .035.079v.004a.147.147 0 0 1-.05.111l-.025.02-.09.062zm1.929.643a.431.431 0 0 0 .14-.296h-.205c-.011.085-.037.145-.077.181s-.102.055-.182.055c-.088 0-.156-.034-.202-.101s-.069-.165-.069-.293v-.105c.001-.127.026-.222.073-.287s.117-.098.207-.098c.077 0 .135.019.175.057s.065.099.075.184h.205c-.013-.13-.059-.23-.139-.301s-.185-.107-.316-.107a.477.477 0 0 0-.257.069.46.46 0 0 0-.169.194l-.001.003a.681.681 0 0 0-.06.282v.015-.001.111c.002.109.022.205.061.287s.095.146.166.191a.463.463 0 0 0 .25.067.478.478 0 0 0 .325-.106zm1.21-.166c.04-.088.06-.19.06-.306v-.079a.718.718 0 0 0-.064-.296l.002.004a.456.456 0 0 0-.171-.199l-.002-.001c-.075-.047-.16-.07-.257-.07s-.182.023-.257.071a.462.462 0 0 0-.173.203.708.708 0 0 0-.061.291v.015-.001.067c.001.113.021.213.062.3s.099.154.174.201c.075.047.161.07.257.07.097 0 .183-.023.257-.07s.132-.115.172-.202zm-.22-.67c.05.07.075.171.075.302v.062c0 .133-.025.235-.074.304s-.119.104-.21.104h-.008a.245.245 0 0 1-.202-.106l-.001-.001a.513.513 0 0 1-.076-.302v-.068a.513.513 0 0 1 .076-.295.244.244 0 0 1 .2-.105h.009c.091 0 .162.035.211.105z"/></symbol><symbol id="icon-group1" viewBox="0 0 35 20"><path  d="M16.705 1.978h-.046c-.07-.004-.14-.006-.21-.008h-.152a7.72 7.72 0 0 0-.401.01l-.015-.001-.016.001h.001a9.397 9.397 0 0 0-3.562.919l.056-.025-.144.069v7.381l.337-.115c.296-.102.611-.193.938-.278a11.088 11.088 0 0 1 2.691-.358h.008v.97a8.227 8.227 0 0 0-.355.01h-.028a10.85 10.85 0 0 0-2.151.335l.075-.017c-.939.239-1.763.569-2.528.992l.054-.027V2.37a9.68 9.68 0 0 1 2.526-1.04l.069-.015A9.675 9.675 0 0 1 16.295 1h.144c.17.004.337.012.493.024.411.029.819.094 1.218.194v.954a7.186 7.186 0 0 0-1.156-.177l-.025-.001-.024-.002a2.926 2.926 0 0 0-.241-.014zm1.679.976c.212.016.431.024.653.024.915-.004 1.8-.124 2.644-.346l-.073.016a10.58 10.58 0 0 0 2.527-.992l-.055.028v9.297a9.68 9.68 0 0 1-2.526 1.04l-.069.015a9.766 9.766 0 0 1-2.443.315h-.062a7.5 7.5 0 0 1-1.847-.23l.052.011V2.775a7.313 7.313 0 0 0 1.2.18zm4.732.072-.337.113c-.31.104-.623.198-.938.281-.84.225-1.805.356-2.8.359h-.002c-.22 0-.422-.006-.618-.019l-.269-.018v7.592l.231.02c.214.019.435.028.658.028a8.922 8.922 0 0 0 2.269-.3l-.063.014a9.174 9.174 0 0 0 1.78-.644l-.055.024.144-.069V3.024zM11.912 15.071a.495.495 0 0 0-.358-.152h-.018.001-.008a.562.562 0 0 0-.213.042l.004-.001a.491.491 0 0 0-.276.277l-.001.003a.538.538 0 0 0-.039.209v1.265a.59.59 0 0 0 .05.259.455.455 0 0 0 .3.26.712.712 0 0 0 .189.026.533.533 0 0 0 .524-.532v-.141h-.331v.121a.29.29 0 0 1-.02.107l.001-.002a.198.198 0 0 1-.048.071.235.235 0 0 1-.138.048l-.019.001a.165.165 0 0 1-.135-.069.296.296 0 0 1-.044-.157v-.013.001-1.179a.4.4 0 0 1 .041-.189.17.17 0 0 1 .162-.076h-.001.006c.058 0 .109.028.141.071a.269.269 0 0 1 .055.163v.116h.327v-.135a.594.594 0 0 0-.042-.22l.001.004a.516.516 0 0 0-.111-.178zm1.964-.014a.584.584 0 0 0-.376-.139.554.554 0 0 0-.499.313l-.001.003a.589.589 0 0 0-.048.245v1.213a.587.587 0 0 0 .048.248c.03.065.073.123.128.17.051.047.11.083.175.107a.569.569 0 0 0 .574-.107l-.001.001a.514.514 0 0 0 .125-.17.587.587 0 0 0 .048-.248v-1.224a.59.59 0 0 0-.05-.238l.001.004a.564.564 0 0 0-.124-.177zm-.154 1.634.001.019a.217.217 0 0 1-.066.157.243.243 0 0 1-.312 0 .216.216 0 0 1-.067-.156l.001-.02v.001-1.213l-.001-.019c0-.061.025-.117.066-.157a.243.243 0 0 1 .312 0c.041.04.066.095.066.156l-.001.02v-.001 1.213zm2.734.542v-2.297h-.318l-.418 1.216h-.006l-.421-1.215h-.314v2.296h.328v-1.397h.006l.321.987h.164l.324-.987h.006v1.397h.328zm1.863-2.135a.453.453 0 0 0-.185-.126.703.703 0 0 0-.225-.036h-.5v2.297h.327v-.897h.168a.591.591 0 0 0 .295-.063.477.477 0 0 0 .178-.173l.001-.002a.551.551 0 0 0 .075-.2c.011-.072.018-.156.018-.24v-.022.001a1.338 1.338 0 0 0-.032-.328.482.482 0 0 0-.121-.211zm-.168.7a.285.285 0 0 1-.031.121l.001-.002a.189.189 0 0 1-.083.08h-.001a.323.323 0 0 1-.137.029h-.018.001-.149v-.781h.185c.048 0 .093.011.134.03l-.002-.001c.034.02.06.049.076.084v.001c.018.04.028.084.029.128v.153c0 .053.003.109 0 .158h-.003zm1.718-.861h-.268l-.506 2.297h.327l.096-.493h.446l.096.493h.327l-.518-2.297zm-.302 1.49.161-.832h.006l.16.832h-.327zm2.416-.107h-.006l-.494-1.383h-.315v2.297h.327v-1.381h.007l.5 1.381h.308v-2.296h-.327v1.383zm2-1.383-.263.913h-.007l-.263-.913h-.346l.449 1.326v.97h.327v-.97l.449-1.326h-.347zM11 17.882h.158v.442h.107v-.443h.157v-.091h-.421v.091zm1.326-.091-.207.533h.114l.044-.121h.213l.045.121h.117l-.212-.533h-.114zm-.017.322.072-.198.072.198h-.145zm1.327.014h.123v.069a.2.2 0 0 1-.127.045h-.008a.132.132 0 0 1-.105-.051.22.22 0 0 1-.04-.127v-.013.001c0-.119.051-.178.153-.178l.012-.001c.053 0 .097.036.109.085v.001l.105-.021c-.023-.104-.098-.157-.226-.157h-.007a.264.264 0 0 0-.179.069.258.258 0 0 0-.076.206v-.001.012a.29.29 0 0 0 .069.188.257.257 0 0 0 .186.079l.017-.001h-.001.009c.084 0 .16-.032.218-.085v-.21h-.231v.09zm1.338-.336h-.108v.533h.373v-.091h-.265v-.443zm1.132 0h-.108v.533h.108v-.533zm1.106.356-.218-.356h-.104v.533h.1v-.348l.214.348h.107v-.533h-.099v.356zm1-.058h.266v-.091h-.266v-.117h.286v-.091h-.394v.533h.405v-.091h-.297v-.144zm2.425-.088h-.21v-.21h-.107v.533h.107v-.233h.21v.233h.107v-.533h-.107v.21zm1.006.088h.267v-.091h-.267v-.117h.287v-.091h-.393v.533h.404v-.091h-.297v-.144zm1.365 0c.093-.015.14-.064.14-.148l.001-.015a.126.126 0 0 0-.053-.103.299.299 0 0 0-.135-.032l-.022.001h.001-.226v.533h.107v-.223h.03c.021 0 .041.005.059.013h-.001a.11.11 0 0 1 .038.039l.116.169h.128l-.065-.104a.366.366 0 0 0-.117-.127l-.001-.001zm-.108-.074h-.079v-.134h.084l.023-.001c.031 0 .06.005.088.014l-.002-.001a.07.07 0 0 1-.005.108.313.313 0 0 1-.089.013l-.021-.001h.001zm1.137.074h.265v-.091h-.265v-.117h.287v-.091h-.395v.533h.405v-.091h-.297v-.144z"/></symbol><symbol id="icon-group2" viewBox="0 0 35 20"><path  d="M12.135 16.367c.005 0 .011.001.015.003l.013.008.073.069a.608.608 0 0 1-.205.132.786.786 0 0 1-.271.048h-.02.001a.757.757 0 0 1-.272-.044.554.554 0 0 1-.337-.314l-.001-.004a.622.622 0 0 1-.047-.24v-.02a.57.57 0 0 1 .19-.427h.001a.684.684 0 0 1 .218-.126.86.86 0 0 1 .281-.044h.017c.087 0 .171.015.249.042l-.005-.002a.703.703 0 0 1 .196.112l-.061.074a.047.047 0 0 1-.015.013.037.037 0 0 1-.021.006h-.004a.05.05 0 0 1-.027-.008l-.032-.02-.046-.025a.52.52 0 0 0-.14-.044h-.003a.623.623 0 0 0-.1-.008h-.015a.57.57 0 0 0-.199.035l.004-.001a.462.462 0 0 0-.158.093c-.045.043-.08.093-.103.148s-.037.121-.037.189v.007a.506.506 0 0 0 .037.199.415.415 0 0 0 .252.24.561.561 0 0 0 .187.032c.037 0 .074-.002.111-.006a.446.446 0 0 0 .241-.103l-.001.001a.057.057 0 0 1 .034-.013zm2.1-.349v.007a.593.593 0 0 1-.051.242l.002-.004a.537.537 0 0 1-.136.19h-.001a.63.63 0 0 1-.211.124l-.004.001a.873.873 0 0 1-.559-.002l.006.002a.644.644 0 0 1-.214-.126l.001.001a.57.57 0 0 1-.137-.189l-.001-.004a.631.631 0 0 1 .002-.496l-.002.004a.567.567 0 0 1 .351-.314.847.847 0 0 1 .558.002l-.006-.002c.081.028.154.071.214.125s.107.12.137.19c.034.079.05.163.049.247zm-.191 0v-.01a.527.527 0 0 0-.036-.191l.001.004a.409.409 0 0 0-.248-.24l-.003-.001a.63.63 0 0 0-.406.002l.005-.001a.423.423 0 0 0-.154.094.398.398 0 0 0-.097.145l-.001.003a.57.57 0 0 0 .001.398l-.001-.004a.404.404 0 0 0 .249.239l.003.001a.657.657 0 0 0 .402 0 .397.397 0 0 0 .25-.24.512.512 0 0 0 .035-.197zm1.623.207.019.044c.007-.016.013-.03.021-.044s.015-.029.024-.043l.464-.734c.009-.013.017-.021.027-.023s.021-.004.032-.004H16.397v1.193h-.163V15.7l-.001-.021.001-.022v.001l-.468.744a.064.064 0 0 1-.027.027.084.084 0 0 1-.039.01h-.028a.084.084 0 0 1-.039-.01.07.07 0 0 1-.027-.027l-.481-.749v.958h-.157V15.42H15.111c.011 0 .022.002.033.004h-.001c.011.005.02.013.025.023l.474.734a.298.298 0 0 1 .024.043zm1.748-.059v.447h-.181v-1.191h.405a.896.896 0 0 1 .226.026c.059.015.113.04.16.074.039.031.07.07.09.115l.001.002a.37.37 0 0 1 .031.153v.008a.33.33 0 0 1-.131.264l-.001.001a.457.457 0 0 1-.161.079.736.736 0 0 1-.205.028h-.015l-.219-.003zm0-.128h.22a.515.515 0 0 0 .141-.018.29.29 0 0 0 .102-.052l-.001.001a.229.229 0 0 0 .083-.177v-.016a.2.2 0 0 0-.019-.085l.001.001a.23.23 0 0 0-.063-.081.385.385 0 0 0-.216-.065l-.03.001h.001-.22v.491zm2.443.576h-.146a.07.07 0 0 1-.038-.011.078.078 0 0 1-.024-.027l-.123-.288h-.621l-.128.288a.065.065 0 0 1-.061.039h-.145l.545-1.193h.189l.553 1.193zm-.9-.443h.513l-.217-.486a.942.942 0 0 1-.041-.112l-.021.062a.616.616 0 0 1-.021.054l.001-.003-.214.485zm1.685-.744a.07.07 0 0 1 .027.021l.795.9v-.926h.163v1.193h-.093a.086.086 0 0 1-.036-.008h.001a.106.106 0 0 1-.029-.022l-.794-.899.001.021-.001.021v-.001.887h-.163v-1.193h.096c.011 0 .022.002.033.006zm2.325.713v.474h-.182v-.473l-.503-.719h.167c.013 0 .025.004.035.01.01.008.018.017.025.027l.314.464c.022.03.04.065.054.102l.001.003.024-.051a.36.36 0 0 1 .031-.054l.31-.467a.11.11 0 0 1 .023-.025.062.062 0 0 1 .036-.012h.169l-.503.722zm-7.391-2.721c.079.009.159.016.24.022 1.227-.477 2.264-1.257 2.983-2.243s1.087-2.134 1.059-3.301l-1.351-1.174c.275 1.242.146 2.527-.371 3.709s-1.403 2.217-2.559 2.987z"/><path  d="m15.095 13.364.036.007c1.235-.768 2.176-1.839 2.702-3.076s.613-2.583.25-3.863L16.158 4.76c.778 1.375 1.092 2.913.903 4.437s-.87 2.969-1.967 4.168zm6.528-4.089c-.327 1.282-1.121 2.439-2.265 3.298a7.026 7.026 0 0 1-1.036.652l-.04.019c.931-.238 1.787-.658 2.501-1.229s1.269-1.276 1.62-2.062l-.781-.678z"/><path  d="m21.316 9.087-1.111-.966c-.021 1.101-.382 2.177-1.043 3.116s-1.601 1.707-2.72 2.224h.005c.249 0 .498-.013.746-.039 1.046-.371 1.97-.961 2.689-1.718s1.212-1.656 1.434-2.618zm-6.061-5.034L13.929 2.9c-1.185.398-2.205 1.098-2.925 2.007S9.897 6.894 9.893 7.998c.004 1.22.477 2.404 1.343 3.364s2.076 1.642 3.438 1.938c1.216-1.287 1.928-2.878 2.033-4.541s-.404-3.312-1.452-4.707zm9.125 4.856c-.005-1.447-.669-2.834-1.847-3.858s-2.775-1.6-4.441-1.605h-.013c-.801 0-1.57.133-2.287.379l.05-.015 8.118 7.054a4.71 4.71 0 0 0 .42-1.955z"/></symbol><symbol id="icon-group3" viewBox="0 0 35 20"><path  d="M8.049 7.034h-.001c-.799 0-1.447.576-1.447 1.286v.001c0 .71.648 1.286 1.447 1.286h.001c.799 0 1.447-.576 1.447-1.286V8.32c0-.711-.648-1.287-1.447-1.287zm10.683-.411c-.002-.987-.444-1.933-1.229-2.63S15.654 2.902 14.544 2.9c-1.111.002-2.175.395-2.961 1.092s-1.227 1.644-1.23 2.631v5.441s8.378-.829 8.379-5.44v-.001zM3.667 13.85c.002.687.31 1.344.856 1.83s1.286.759 2.059.761c.772-.002 1.512-.276 2.059-.761s.854-1.143.856-1.829v-3.786s-5.829.578-5.829 3.785zm2.914.678a.839.839 0 0 1-.424-.114.714.714 0 0 1-.279-.3l-.002-.004a.594.594 0 0 1-.043-.396l-.001.004c.029-.132.102-.253.209-.347a.806.806 0 0 1 .54-.199c.105 0 .205.019.298.053l-.006-.002c.14.051.259.138.343.25a.627.627 0 0 1 .072.638.674.674 0 0 1-.165.22l-.001.001a.829.829 0 0 1-.54.2h-.001v-.003zm5.329-1.214v1.422h-.293v-1.422h.293zm.567.607v.229h-.647v-.228h.647zm.068-.607v.23h-.715v-.23h.715zm1.338.677v.081a.9.9 0 0 1-.046.285l.002-.006a.619.619 0 0 1-.125.22l.001-.001c-.053.06-.117.106-.191.138s-.155.048-.245.048h-.007a.609.609 0 0 1-.242-.05l.004.002a.566.566 0 0 1-.191-.137v-.001a.66.66 0 0 1-.125-.215l-.001-.005a.88.88 0 0 1-.044-.278v-.013.001-.068c0-.109.015-.206.044-.291s.071-.159.124-.22a.53.53 0 0 1 .188-.137l.003-.001c.074-.032.156-.048.245-.048s.171.016.245.048a.526.526 0 0 1 .191.139c.054.061.096.134.125.22s.045.182.045.291zm-.296.068v-.069a.898.898 0 0 0-.02-.199.416.416 0 0 0-.062-.146l.001.002a.266.266 0 0 0-.096-.087l-.001-.001a.277.277 0 0 0-.127-.03h-.005a.26.26 0 0 0-.228.117l-.001.001a.449.449 0 0 0-.059.142l-.001.003a.852.852 0 0 0-.021.188v.012-.001.069c0 .075.007.141.021.199s.034.106.06.146a.279.279 0 0 0 .096.088l.001.001c.038.02.082.03.132.03s.093-.01.132-.03a.271.271 0 0 0 .096-.088l.001-.001a.454.454 0 0 0 .059-.143l.001-.003a.85.85 0 0 0 .021-.199zm1.247.305v-.003a.19.19 0 0 0-.012-.067v.001a.13.13 0 0 0-.041-.056.37.37 0 0 0-.083-.051l-.002-.001a1.063 1.063 0 0 0-.133-.05l-.009-.002a1.7 1.7 0 0 1-.195-.075l.011.005a.775.775 0 0 1-.154-.092l.002.001a.405.405 0 0 1-.102-.12l-.001-.002a.327.327 0 0 1-.037-.154v-.012c0-.057.014-.111.04-.158l-.001.002c.026-.049.063-.091.109-.125s.102-.062.166-.081a.75.75 0 0 1 .486.029.447.447 0 0 1 .182.155.397.397 0 0 1 .066.226h-.291v-.005a.222.222 0 0 0-.027-.106l.001.001a.185.185 0 0 0-.077-.075h-.001a.266.266 0 0 0-.121-.028h-.02a.316.316 0 0 0-.119.024l.002-.001a.164.164 0 0 0-.076.061v.001a.15.15 0 0 0-.025.084v.002a.12.12 0 0 0 .018.065c.015.022.033.04.054.054h.001c.024.017.054.033.089.048s.076.03.122.044c.077.023.145.05.204.079.057.027.106.06.149.099l-.001-.001c.04.037.07.078.09.124s.03.099.03.157a.344.344 0 0 1-.14.29.473.473 0 0 1-.163.077.813.813 0 0 1-.42 0 .666.666 0 0 1-.189-.086l.002.001a.44.44 0 0 1-.132-.143l-.001-.002a.418.418 0 0 1-.05-.208h.294c0 .044.007.082.021.112s.033.055.057.074a.254.254 0 0 0 .088.041h.002a.512.512 0 0 0 .115.013h.01a.305.305 0 0 0 .117-.023l-.002.001a.155.155 0 0 0 .098-.144v-.002zm1.128-1.05v1.422h-.292v-1.422h.292zm.437 0v.23h-1.16v-.23h1.16zm1.121 1.193v.229h-.757v-.229h.757zm-.661-1.193v1.422h-.293v-1.422h.293zm.563.579v.223h-.658v-.223h.658zm.097-.579v.23h-.756v-.23h.756zm.172 0h.53c.109 0 .202.017.281.049s.139.081.181.144a.41.41 0 0 1 .064.235c0 .076-.013.142-.039.197s-.062.1-.108.135l-.001.001a.565.565 0 0 1-.159.085l-.004.001-.093.049h-.461l-.002-.229H18.232c.043 0 .084-.01.12-.028l-.002.001a.178.178 0 0 0 .076-.075v-.001a.231.231 0 0 0 .027-.109v-.011a.272.272 0 0 0-.026-.114l.001.002a.18.18 0 0 0-.076-.076h-.001a.28.28 0 0 0-.121-.027h-.247v1.193h-.293v-1.422zm.795 1.422-.324-.634.31-.002.328.622v.013h-.313zm1.538-.507h-.362V14h.374c.045 0 .088-.01.127-.028l-.002.001a.174.174 0 0 0 .077-.077v-.001a.285.285 0 0 0-.001-.232l.001.002a.204.204 0 0 0-.076-.088h-.001a.252.252 0 0 0-.126-.034h-.011.001-.261v1.193h-.293v-1.422h.554c.111 0 .207.02.286.061s.141.095.184.165.063.151.063.241c0 .092-.021.171-.063.238s-.103.119-.183.155a.676.676 0 0 1-.286.055zm1.69.278v.229h-.757v-.229h.757zm-.661-1.193v1.422h-.293v-1.422h.293zm.562.579v.223h-.659v-.223h.658zm.098-.579v.23h-.756v-.23h.756zm.827 0v1.422h-.292v-1.422h.292zm.437 0v.23h-1.16v-.23h1.16zm1.122 1.193v.229h-.757v-.229h.757zm-.662-1.193v1.422h-.293v-1.422h.293zm.563.579v.223h-.658v-.223H24zm.098-.579v.23h-.756v-.23h.756zm.171 0h.531c.109 0 .202.017.28.049s.139.081.182.144a.418.418 0 0 1 .063.235c0 .076-.013.142-.039.197s-.062.1-.108.135l-.001.001a.565.565 0 0 1-.159.085l-.004.001-.093.049h-.461l-.002-.229H24.811c.043 0 .084-.01.12-.028l-.002.001a.178.178 0 0 0 .076-.075v-.001a.231.231 0 0 0 .027-.109v-.011a.258.258 0 0 0-.026-.114l.001.002a.18.18 0 0 0-.076-.076h-.001a.28.28 0 0 0-.121-.027h-.247v1.193h-.293v-1.423zm.795 1.422-.324-.634.309-.002.328.622v.013h-.313zm1.227-.372v-.003a.19.19 0 0 0-.012-.067v.001a.13.13 0 0 0-.041-.056.37.37 0 0 0-.083-.051l-.002-.001a1.063 1.063 0 0 0-.133-.05l-.009-.002a1.7 1.7 0 0 1-.195-.075l.011.005a.775.775 0 0 1-.154-.092l.002.001a.405.405 0 0 1-.102-.12l-.001-.002a.327.327 0 0 1-.037-.154v-.012c0-.057.014-.111.04-.158l-.001.002c.026-.049.063-.091.11-.125s.102-.062.166-.081a.745.745 0 0 1 .487.029.432.432 0 0 1 .181.155.397.397 0 0 1 .066.226h-.291v-.005a.222.222 0 0 0-.027-.106l.001.001a.185.185 0 0 0-.077-.075h-.001a.266.266 0 0 0-.121-.028h-.02a.316.316 0 0 0-.119.024l.002-.001a.164.164 0 0 0-.076.061v.001a.15.15 0 0 0-.025.084v.002a.12.12 0 0 0 .018.065c.015.022.033.04.054.054h.001c.024.017.054.033.089.048s.076.03.122.044c.077.023.145.05.204.079s.109.062.148.099c.04.037.07.078.09.124s.03.099.03.157a.344.344 0 0 1-.14.29.473.473 0 0 1-.163.077.813.813 0 0 1-.42 0 .666.666 0 0 1-.189-.086l.002.001a.44.44 0 0 1-.132-.143l-.001-.002a.418.418 0 0 1-.05-.208h.294c0 .044.007.082.021.112s.033.055.057.074a.254.254 0 0 0 .088.041h.002a.512.512 0 0 0 .115.013h.01a.305.305 0 0 0 .117-.023l-.002.001a.155.155 0 0 0 .098-.144v-.002z"/></symbol><symbol id="icon-group4" viewBox="0 0 35 20"><path  d="M8.919 14.912a.48.48 0 0 1 .122.326l.001.025a.466.466 0 0 1-.046.204l.001-.003a.52.52 0 0 1-.145.185l-.001.001a.87.87 0 0 1-.553.15h.003-.968v-2.063h.948a.862.862 0 0 1 .529.139l-.003-.002c.061.047.11.107.142.173s.046.14.042.213a.45.45 0 0 1-.11.315.52.52 0 0 1-.289.161.56.56 0 0 1 .327.177zM7.784 14.6h.405a.411.411 0 0 0 .258-.069.242.242 0 0 0 .068-.09l.001-.002a.223.223 0 0 0 .019-.09l-.001-.02v.001l.001-.017a.23.23 0 0 0-.02-.094l.001.002a.27.27 0 0 0-.067-.092.417.417 0 0 0-.233-.071l-.034.001h.001-.399v.542zm.702.792a.257.257 0 0 0 .074-.093l.001-.002a.228.228 0 0 0 .022-.099l-.001-.017v.001-.015a.236.236 0 0 0-.023-.103l.001.001a.27.27 0 0 0-.075-.095h-.001a.445.445 0 0 0-.248-.075l-.028.001h.001-.425v.568h.431a.453.453 0 0 0 .272-.072zm2.371.407-.527-.807h-.198v.807h-.454v-2.064h.859a.9.9 0 0 1 .6.177l-.002-.002a.632.632 0 0 1 .206.459c0 .15-.054.288-.143.396l.001-.001a.715.715 0 0 1-.406.209h-.004l.562.825h-.493zm-.726-1.088h.371c.258 0 .387-.104.387-.312v-.017a.288.288 0 0 0-.022-.11l.001.002a.29.29 0 0 0-.074-.107.425.425 0 0 0-.256-.085l-.038.002h.002-.375l.004.628zm3.206.672h-.904l-.16.416h-.476l.83-2.041h.515l.827 2.041h-.475l-.156-.415zm-.121-.312-.33-.871-.33.871h.661zm3.225.728h-.45l-1.01-1.403v1.403h-.449v-2.064h.449l1.01 1.412v-1.412h.45v2.064zm2.57-.494a.933.933 0 0 1-.408.364c-.175.082-.38.13-.597.13l-.039-.001h.002-.801v-2.064H18.008c.216 0 .421.047.605.131l-.009-.004c.172.08.314.205.407.36a1.115 1.115 0 0 1 0 1.083zm-.515-.049a.717.717 0 0 0 .199-.492.72.72 0 0 0-.199-.492.82.82 0 0 0-.512-.177l-.054.002h.002-.313v1.336h.313a.809.809 0 0 0 .566-.176l-.002.001zm-4.877-13s5.813 2.009 5.69 4.917v4.918s-5.809-2.01-5.688-4.918l-.002-4.917zm10.868 8.683a8.43 8.43 0 0 1 3.693-1.246v-1.54c-1.527.539-2.823 1.517-3.693 2.786z"/><path  d="M23.827 11.403c.898-1.657 2.456-2.935 4.353-3.572V3.395s-8.278 2.862-8.103 7.003V17.4s.369-.128.949-.368c0-.224 0-.45.027-.677.171-1.922 1.169-3.703 2.775-4.952z"/><path d="M23.04 14.004c.043-.486.14-.966.289-1.434-.999 1.078-1.605 2.417-1.731 3.826a5.9 5.9 0 0 0-.022.403 22.772 22.772 0 0 0 1.726-.834l-.133.065a6.648 6.648 0 0 1-.129-2.028zm.329.026a6.408 6.408 0 0 0 .11 1.877l-.007-.041c2.262-1.239 4.803-3.154 4.705-5.468v-.202c-1.616.166-3.128.812-4.303 1.841a6.278 6.278 0 0 0-.503 1.968l-.002.025z"/></symbol><symbol id="icon-group5" viewBox="0 0 35 20"><path  d="M17.808 9.136a.976.976 0 0 1-.202-.666v.003-.961c0-.294.067-.518.201-.672s.363-.229.688-.229c.306 0 .523.065.651.196a.8.8 0 0 1 .193.575v.226h-.547v-.229a1.121 1.121 0 0 0-.016-.224.22.22 0 0 0-.078-.133.314.314 0 0 0-.175-.053l-.024.001h.001l-.024-.001a.337.337 0 0 0-.186.056l.001-.001a.252.252 0 0 0-.09.145v.002a1.076 1.076 0 0 0-.022.219v.02-.001 1.166a.597.597 0 0 0 .07.327.26.26 0 0 0 .108.079l.002.001c.032.013.069.02.108.02L18.502 9h-.001a.295.295 0 0 0 .194-.053l-.001.001a.23.23 0 0 0 .081-.14v-.001c.013-.077.019-.156.017-.234v-.237h.547v.216a.878.878 0 0 1-.19.606l.001-.002c-.126.143-.34.214-.655.214s-.553-.076-.687-.235zm2.278.01c-.138-.15-.207-.368-.207-.656V7.479c0-.286.069-.502.207-.648s.369-.22.693-.219c.322 0 .551.073.69.219s.208.363.208.648V8.49c0 .286-.07.505-.211.655s-.369.226-.687.226-.554-.076-.693-.225zm.947-.243a.56.56 0 0 0 .066-.299V7.366l.001-.033a.544.544 0 0 0-.067-.263l.001.003a.266.266 0 0 0-.11-.08l-.002-.001a.308.308 0 0 0-.107-.02l-.039.002h.002a.307.307 0 0 0-.147.018l.002-.001a.268.268 0 0 0-.112.08.544.544 0 0 0-.066.293v1.244a.551.551 0 0 0 .066.299.345.345 0 0 0 .115.074.395.395 0 0 0 .284-.001l-.003.001a.345.345 0 0 0 .115-.074v-.006zm1.302-2.262h.589l.443 1.865.453-1.865h.573l.058 2.692h-.424l-.045-1.871-.437 1.871h-.34l-.453-1.878-.042 1.878h-.428l.053-2.692zm2.775 0h.917c.528 0 .793.255.793.764 0 .488-.278.732-.835.731h-.312v1.196h-.566l.003-2.692zm.784 1.151a.447.447 0 0 0 .312-.085.437.437 0 0 0 .082-.304l.001-.03c0-.076-.01-.15-.029-.221l.001.006a.193.193 0 0 0-.042-.074.228.228 0 0 0-.07-.053l-.001-.001a.576.576 0 0 0-.223-.044l-.031.001h.001-.22v.805h.22zm1.743-1.151h.608l.624 2.692h-.528l-.123-.621h-.542l-.127.621h-.536l.624-2.692zm.519 1.76-.212-1.13-.212 1.13h.423zm1.216-1.76h.397l.758 1.536V6.641h.47v2.692h-.377l-.763-1.603v1.603h-.486l.001-2.692zm2.726 1.666-.631-1.662h.531l.385 1.068.361-1.068h.52l-.623 1.662v1.026h-.543V8.306zm-13.415 2.204v.141h-.462v1.094h-.194v-1.094h-.464v-.141h1.12zm1.448 1.234h-.154a.064.064 0 0 1-.038-.012.06.06 0 0 1-.024-.028l-.134-.293h-.641l-.133.293a.072.072 0 0 1-.021.033.072.072 0 0 1-.039.012h-.153l.566-1.235h.197l.573 1.23zm-.938-.458h.534l-.227-.503a.822.822 0 0 1-.04-.11l-.002-.006a1.603 1.603 0 0 0-.021.066l-.021.052-.224.502zm1.914.337a.676.676 0 0 0 .197-.015.762.762 0 0 0 .082-.022l.076-.03v-.278h-.228a.048.048 0 0 1-.029-.01.028.028 0 0 1-.009-.01.02.02 0 0 1-.003-.011v-.096h.439v.473a.84.84 0 0 1-.233.099l-.006.001a1.143 1.143 0 0 1-.307.034h-.007a.86.86 0 0 1-.284-.048l.006.002a.692.692 0 0 1-.228-.13l.001.001a.588.588 0 0 1-.144-.192l-.002-.004a.604.604 0 0 1-.052-.248v-.016a.64.64 0 0 1 .053-.255l-.002.004c.032-.073.082-.14.146-.196s.142-.099.227-.128a1.027 1.027 0 0 1 .595-.004c.04.013.078.029.113.049s.068.041.099.064l-.054.076a.058.058 0 0 1-.018.017.056.056 0 0 1-.026.007.068.068 0 0 1-.035-.01 1.025 1.025 0 0 1-.059-.031l.003.002a.434.434 0 0 0-.072-.032l-.004-.001a.757.757 0 0 0-.1-.027l-.004-.001a.823.823 0 0 0-.136-.011h-.015a.666.666 0 0 0-.216.036l.005-.001a.435.435 0 0 0-.271.248l-.001.003a.568.568 0 0 0 .001.416l-.001-.004a.489.489 0 0 0 .278.254c.072.021.148.03.224.024zm1.805-.019h.618v.141h-.807v-1.235h.193l-.004 1.094zm1.261.14h-.193V10.51h.193v1.235zm.721-1.228a.11.11 0 0 1 .03.022l.828.931-.001-.022.001-.023v.001-.92h.169v1.24H25.818a.105.105 0 0 1-.036-.007h.001a.1.1 0 0 1-.03-.023l-.827-.93v.96h-.162v-1.235h.101c.011 0 .022.002.032.006zm2.451-.006v.136h-.686v.408h.556v.131h-.556v.421h.686v.136h-.885v-1.232h.885zM7.054 2.885l8.598 2.108v7.386l-8.598-2.107V2.885zm-.552-.63v8.376l9.7 2.379V4.635l-9.7-2.379z"/><path  d="M11.701 16.897 2 14.516V6.142l9.701 2.38v8.375z"/><path  d="m6.663 2.79 8.486 2.081-3.609 3.117-8.487-2.082 3.61-3.116zm-.161-.534L2 6.143l9.701 2.38 4.501-3.887-9.7-2.379zm5.745 14.17 3.955-3.416-3.955-.97v4.387z"/></symbol><symbol id="icon-clock" viewBox="0 0 20 20"><path fill="#212121" style="fill:var(--color3, #212121)" d="M19.56 9.563C19.559 4.28 15.276-.001 9.993 0S.429 4.285.43 9.567c.001 4.242 2.764 7.839 6.588 9.091l.068.019a.416.416 0 0 0 .331-.041.397.397 0 0 0 .177-.223l2.415-7.656a1.195 1.195 0 1 0-.532-2.267l.007-.003-3.191-3.192a.399.399 0 0 0-.564.564l3.189 3.193a1.17 1.17 0 0 0 .332 1.441l.003.002-2.301 7.296C2.403 16.115.074 11.07 1.75 6.521S8.471-.357 13.02 1.319a8.776 8.776 0 0 1 5.202 11.27 8.828 8.828 0 0 1-4.609 4.961l-.055.022-.249-1.171a.399.399 0 0 0-.656-.214l-2.398 2.141a.399.399 0 0 0 .141.677l.003.001 3.062.977a.4.4 0 0 0 .511-.465v.003l-.244-1.149c3.455-1.484 5.83-4.857 5.83-8.785v-.021.001zm-9.565-.398a.399.399 0 1 1 0 .798.399.399 0 1 1 0-.798zm1.313 9.29 1.365-1.218.377 1.775-1.742-.557z"/><path fill="#2196f3" style="fill:var(--color2, #2196f3)" d="M9.597 1.991v.797a.399.399 0 1 0 .798 0v-.797a.399.399 0 1 0-.798 0zM2.423 9.165a.399.399 0 1 0 0 .798h.797a.399.399 0 1 0 0-.798h-.797zm15.145.797a.399.399 0 1 0 0-.798h-.797a.399.399 0 1 0 0 .798h.797z"/></symbol><symbol id="icon-antena" viewBox="0 0 19 20"><path fill="#212121" style="fill:var(--color3, #212121)" d="m18.662 13.811-5.277-5.316.586-2.885c.14.057.303.09.474.091h.021a1.349 1.349 0 1 0-1.268-.887l-.003-.009-3.1.379L5.038.101a.334.334 0 0 0-.235-.1.334.334 0 0 0-.233.097l-.945.94a.334.334 0 0 0 0 .472l.509.516a9.228 9.228 0 0 0-1.135 4.462 9.31 9.31 0 0 0 2.71 6.578l-.001-.001a.323.323 0 0 0 .091.061c-.02.102-.032.221-.033.341v3.867h-4A1.668 1.668 0 0 0 .099 19v.667c0 .184.149.333.334.333h15.333a.333.333 0 0 0 .333-.333V19a1.67 1.67 0 0 0-1.666-1.667h-4v-1.714a9.235 9.235 0 0 0 6.353-.939l-.048.024.511.514a.336.336 0 0 0 .235.1.334.334 0 0 0 .233-.097l.945-.94a.334.334 0 0 0 0-.472zm-4.683-9.915a.665.665 0 0 1 1.137.473.666.666 0 0 1-.667.667h-.002a.667.667 0 0 1-.467-1.14h-.001zm-.785 2.19-.374 1.841-.735-.739 1.109-1.102zm-.379-.564-1.2 1.193-.929-.933 2.129-.26zM14.431 18a1 1 0 0 1 1 1v.333H.764V19a1 1 0 0 1 1-1h12.667zm-4.666-1.333v.667H6.432v-.667h3.333zM6.431 16v-2.533c0-.809.748-1.467 1.667-1.467s1.667.658 1.667 1.467V16H6.432zm4-1.06v-1.473c0-1.176-1.047-2.133-2.333-2.133h-.036c-.845 0-1.588.442-2.008 1.107l-.006.01a8.635 8.635 0 0 1-2.382-5.969c0-1.446.354-2.81.981-4.009l-.023.048L16.25 14.214a8.518 8.518 0 0 1-3.916.939c-.674 0-1.33-.077-1.96-.223l.058.011zm7.056-.427L4.326 1.275l.471-.47 4.959 4.987c.002 0 .004.004.006.006l8.197 8.245-.473.47z"/><path fill="#2196f3" style="fill:var(--color2, #2196f3)" d="M8.101 12.667h-.005a1 1 0 0 0-.002 2h.004a1 1 0 0 0 .002-2zm.233 1.236a.333.333 0 1 1-.236-.569.334.334 0 0 1 .234.569h.003z"/></symbol><symbol id="icon-astronaut" viewBox="0 0 20 20"><path fill="#2196f3" style="fill:var(--color2, #2196f3)" d="M19.984 2.827a.334.334 0 0 0-.267-.226h-.002l-1.194-.174-.534-1.082c-.112-.228-.486-.228-.597 0l-.534 1.082-1.194.174a.335.335 0 0 0-.186.569l.865.842-.204 1.189a.335.335 0 0 0 .132.326.33.33 0 0 0 .351.025l1.068-.562 1.068.562a.334.334 0 0 0 .484-.354V5.2l-.204-1.189.864-.843a.333.333 0 0 0 .083-.344l.001.002zm-1.539.83a.333.333 0 0 0-.096.295l.119.696-.625-.329a.333.333 0 0 0-.312 0l.002-.001-.625.329.119-.696a.336.336 0 0 0-.095-.295l-.507-.493.699-.101a.333.333 0 0 0 .251-.183l.313-.633.313.633a.333.333 0 0 0 .251.183l.699.101-.506.493zm-2.112 9.169h-.667v.667h.667v-.667zm0 1.334h-.667v.666h.667v-.666zm.667-.667h-.667v.667H17v-.667zm-1.333 0H15v.667h.667v-.667zm-1.667 3h-.667v.667H14v-.667zm0 1.334h-.667v.667H14v-.667zm.667-.667H14v.667h.667v-.667zm-1.334 0h-.667v.667h.667v-.667zm-3.333-2h-.667v.667H10v-.667zm0 1.333h-.667v.667H10v-.667zm.667-.667H10v.667h.667v-.667zm-1.334 0h-.667v.667h.667v-.667zm-5.666-12H3v.667h.667v-.667zm0 1.334H3v.667h.667v-.666zm.666-.667h-.667v.667h.667v-.667zM3 4.493h-.667v.667H3v-.667z"/><path fill="#212121" style="fill:var(--color3, #212121)" d="M15.447 8.85a1.112 1.112 0 0 0-.737-.44l-.006-.001a1.124 1.124 0 0 0-.84.222l.003-.002-.783.6-1.186.886-.849-.338a4.337 4.337 0 0 0 2.571-3.95c0-2.389-1.951-4.333-4.351-4.333S4.918 3.438 4.918 5.827c0 .866.259 1.671.7 2.349l-1.73-.015-.015.003a.355.355 0 0 0-.099.02l.002-.001-.024.008-.012.004-2.021.997-.001.001-1.183.569a.22.22 0 0 0-.04.023l.001-.001a1.114 1.114 0 0 0-.371 1.442l-.003-.006c.137.265.37.464.652.553l.008.002a1.109 1.109 0 0 0 .868-.083l-.006.003.867-.461 1.415-.731.848-.005-3.401 3.385-.001.001-.837.833a1.028 1.028 0 0 0-.307.733v.003c.001.575.467 1.04 1.042 1.04h.002c.267 0 .534-.101.738-.303l.821-.818 1.088-.812.563.561-1.939 1.93a1.028 1.028 0 0 0-.307.733v.003a1.04 1.04 0 0 0 1.042 1.04h.002c.267 0 .534-.101.738-.303l2.805-2.795c.004-.004.01-.005.014-.01l3.229-3.536 2.169.309a.34.34 0 0 0 .164-.021c.011-.004.02-.009.031-.015.012-.006.025-.009.036-.017l2.008-1.333c.007-.005.011-.013.018-.019.008-.006.018-.009.025-.016l.794-.744a1.11 1.11 0 0 0 .131-1.479l.002.003zM1.331 11.106a.436.436 0 0 1-.352.032l.003.001a.447.447 0 0 1-.134-.786l.001-.001.821-.395.198.578.083.243-.62.329zm2.186-1.142-.968.5-.159-.467-.115-.335 1.267-.625-.025.927zm9.437-4.138c0 .574-.137 1.115-.374 1.6L9.967 6.239a1.165 1.165 0 0 0-.489-.865l-.004-.002.915-3.038a3.674 3.674 0 0 1 2.565 3.493zm-7.368 0c0-2.022 1.653-3.667 3.684-3.667.158 0 .313.013.466.033l-.895 2.971c-.012 0-.023-.004-.036-.004h-.001a1.17 1.17 0 0 0-1.17 1.167 1.166 1.166 0 0 0 2.181.577L12.229 8a3.684 3.684 0 0 1-2.961 1.494c-2.031 0-3.684-1.645-3.684-3.667zm3.723.5c0 .276-.226.5-.504.5h-.001a.503.503 0 0 1-.503-.5.503.503 0 0 1 1.007 0zm-7.769 9.39a.379.379 0 0 1-.534 0 .37.37 0 0 1 0-.528l.601-.599.533.53-.599.597zm2.009 2.334a.379.379 0 0 1-.534 0 .37.37 0 0 1 0-.528l.602-.599.532.53-.6.597zm2.176-2.168-.001.001-1.103 1.1-.533-.53 1.103-1.098a.313.313 0 0 0 .056-.085c.004-.009.013-.016.016-.025.01-.026.012-.053.016-.08.002-.015.009-.03.009-.046 0-.022-.008-.044-.013-.066-.004-.02-.004-.04-.012-.06a.322.322 0 0 0-.057-.086c-.006-.007-.009-.017-.015-.024H5.19l-.001-.001-1.004-1c-.011-.011-.024-.015-.036-.024a.324.324 0 0 0-.053-.035l-.002-.001a.308.308 0 0 0-.056-.02h-.002a.306.306 0 0 0-.063-.012h-.015a.36.36 0 0 0-.047.003h.002a.291.291 0 0 0-.124.041c-.013.007-.027.009-.038.018l-1.109.827-.563-.561 1.499-1.491 2.725 2.681-.58.574zm4.262-4.386c-.01-.001-.019.002-.029.002h-.017a.345.345 0 0 0-.057.005h.002a.312.312 0 0 0-.117.044l.001-.001a.314.314 0 0 0-.052.038c-.008.007-.018.01-.025.018l-2.936 3.216-2.705-2.66 1.771-1.761a.333.333 0 0 0-.237-.57h-.001l-1.387.008.017-1.005 1.94.017a4.333 4.333 0 0 0 3.111 1.313h.002a4.4 4.4 0 0 0 .8-.077c.025.02.05.04.081.053l1.506.6.095.474.111.553-1.877-.267zm2.526.112-.196-.974.904-.675.591.785-1.3.863zm2.345-1.77-.523.491-.582-.773.519-.398a.454.454 0 0 1 .639.089.447.447 0 0 1-.053.592z"/><path fill="#212121" style="fill:var(--color3, #212121)" d="m8.501 11.59-1.339-1.333a.331.331 0 0 0-.47 0L5.353 11.59a.336.336 0 0 0 0 .472l1.339 1.333a.331.331 0 0 0 .47 0l1.339-1.333a.334.334 0 0 0 0-.472zm-1.574 1.099-.867-.863.867-.863.867.863-.867.863zm3.801-9.52-.161.647c.045.011 1.086.282 1.086 1.343h.667c0-1.261-1.041-1.853-1.592-1.99zm1.591 2.657h-.667v.667h.667v-.667z"/></symbol><symbol id="icon-diagram" viewBox="0 0 20 20"><path fill="#2196f3" style="fill:var(--color2, #2196f3)" d="M9.329 9.353h.666v2.999h-.666V9.353zm2.665 1.333h.666v1.666h-.666v-1.666zm-5.331.999h.666v.666h-.666v-.666zm-1.999-.333h.666v.999h-.666v-.999z"/><path fill="#212121" style="fill:var(--color3, #212121)" d="M.999 17.682H16.99a.999.999 0 0 0 .999-.999V15.35a.999.999 0 0 0-.999-.999h-.333V6.042l1.892-1.793a1.005 1.005 0 1 0-.464-.47l-.003-.006-1.426 1.351v-.769a.999.999 0 0 0-.999-.999H2.33a.999.999 0 0 0-.999.999v9.995H.998a.999.999 0 0 0-.999.999v1.333c0 .552.447.999.999.999zM18.99 3.023a.333.333 0 1 1 0 .666.333.333 0 1 1 0-.666zM1.999 4.355c0-.184.149-.333.333-.333h13.327c.184 0 .333.149.333.333v1.399l-.666.633V5.021a.333.333 0 0 0-.333-.333H3a.333.333 0 0 0-.333.333v8.329c0 .184.149.333.333.333h11.993a.333.333 0 0 0 .333-.333V7.303l.666-.631v7.677H1.999V4.355zm2.998 4.332h-.003a.999.999 0 1 0 .695 1.717l1.158.581a.333.333 0 0 0 .398-.077l2.462-2.77 2.42 1.813c.13.097.311.087.429-.025l2.103-1.992v5.082H3.332V5.353h11.327v1.663l-2.357 2.232-2.44-1.829a.334.334 0 0 0-.449.044l-2.495 2.808-.933-.467a.973.973 0 0 0 .013-.121.999.999 0 0 0-.999-.999zm.334.999a.333.333 0 1 1-.666 0 .333.333 0 1 1 .666 0zm1.998 5.331h3.331v.333a.333.333 0 0 1-.333.333H7.662a.333.333 0 0 1-.333-.333v-.333zm-6.662.333c0-.184.149-.333.333-.333h5.664v.333c0 .552.447.999.999.999h2.665a.999.999 0 0 0 .999-.999v-.333h5.664c.184 0 .333.149.333.333v1.333a.333.333 0 0 1-.333.333H1a.333.333 0 0 1-.333-.333V15.35z"/></symbol><symbol id="icon-facebook" viewBox="0 0 20 20"><path  d="M13.33 3.32h1.827V.14C14.387.051 13.494 0 12.59 0h-.098.005C9.864 0 8.06 1.656 8.06 4.7v2.8H5.156v3.555H8.06V20h3.562v-8.944h2.787l.442-3.555h-3.23V5.05c0-1.027.277-1.73 1.709-1.73z"/></symbol><symbol id="icon-instagram" viewBox="0 0 20 20"><path  d="M19.98 5.88c-.046-1.063-.218-1.793-.464-2.426a4.897 4.897 0 0 0-1.156-1.773l-.001-.001A4.943 4.943 0 0 0 16.623.538l-.034-.011C15.952.281 15.226.11 14.163.063 13.093.012 12.753 0 10.037 0S6.982.012 5.915.059C4.853.105 4.122.277 3.49.523a4.91 4.91 0 0 0-1.774 1.156l-.001.001A4.94 4.94 0 0 0 .574 3.416l-.011.034C.316 4.087.145 4.813.098 5.876c-.051 1.07-.063 1.41-.063 4.126s.012 3.055.059 4.122c.047 1.063.219 1.793.465 2.426.267.694.66 1.286 1.155 1.773l.001.001a4.92 4.92 0 0 0 1.77 1.152c.637.247 1.364.419 2.426.465 1.067.047 1.407.059 4.122.059s3.056-.012 4.122-.059c1.063-.046 1.793-.218 2.426-.464a5.148 5.148 0 0 0 2.915-2.892l.012-.035c.246-.637.418-1.364.465-2.426.047-1.067.058-1.407.058-4.122s-.004-3.055-.05-4.122zm-1.8 8.166c-.044.977-.208 1.504-.344 1.856a3.337 3.337 0 0 1-1.877 1.89l-.023.008c-.35.137-.882.301-1.855.344-1.055.047-1.371.059-4.04.059s-2.989-.012-4.04-.059c-.977-.043-1.504-.207-1.856-.344a3.085 3.085 0 0 1-1.147-.745l-.001-.001a3.123 3.123 0 0 1-.74-1.127l-.007-.021c-.136-.352-.3-.883-.343-1.856-.047-1.055-.059-1.372-.059-4.04s.012-2.99.059-4.04c.043-.977.207-1.504.343-1.856.168-.451.424-.836.749-1.148L3 2.965a3.107 3.107 0 0 1 1.129-.739l.021-.007c.35-.137.882-.3 1.855-.344 1.055-.046 1.372-.058 4.04-.058 2.672 0 2.989.012 4.04.058.977.043 1.504.207 1.856.344.433.16.828.414 1.148.746.332.325.586.715.747 1.15.136.35.3.882.343 1.855.047 1.055.059 1.371.059 4.04s-.012 2.98-.059 4.036z"/><path  d="M10.037 4.864A5.14 5.14 0 0 0 4.9 10.002a5.139 5.139 0 0 0 10.276.006v-.005a5.14 5.14 0 0 0-5.138-5.138zm0 8.47a3.333 3.333 0 1 1 0-6.666h.001a3.333 3.333 0 1 1 0 6.666zm6.541-8.673a1.2 1.2 0 1 1-2.4 0 1.2 1.2 0 1 1 2.4 0z"/></symbol><symbol id="icon-linkedin" viewBox="0 0 20 20"><path  d="M19.995 20H20v-7.336c0-3.588-.773-6.352-4.967-6.352-2.017 0-3.37 1.106-3.923 2.156h-.058V6.647H7.074v13.352h4.142v-6.611c0-1.741.33-3.425 2.486-3.425 2.124 0 2.155 1.987 2.155 3.536V20h4.138zM.33 6.647h4.147V20H.33V6.647zM2.402 0A2.401 2.401 0 0 0 0 2.402c0 1.325 1.076 2.424 2.402 2.424s2.401-1.098 2.401-2.424A2.403 2.403 0 0 0 2.402 0z"/></symbol><symbol id="icon-mail" viewBox="0 0 27 20"><path  d="M24.167 0H2.5A2.503 2.503 0 0 0 0 2.5v15C0 18.878 1.122 20 2.5 20h21.667c1.378 0 2.5-1.122 2.5-2.5v-15c0-1.378-1.122-2.5-2.5-2.5zm0 1.667c.113 0 .222.023.32.065l-11.153 9.667L2.181 1.732a.805.805 0 0 1 .32-.065h21.667zm0 16.666H2.5a.833.833 0 0 1-.833-.833V3.492l11.12 9.638a.83.83 0 0 0 1.095-.001l-.001.001 11.12-9.638V17.5c0 .46-.373.833-.833.833z"/></symbol>
<symbol id="icon-smartphone" viewBox="0 0 13 20"><path  d="M10.625 0h-8.75A1.877 1.877 0 0 0 0 1.875v16.25C0 19.159.841 20 1.875 20h8.75a1.877 1.877 0 0 0 1.875-1.875V1.875A1.877 1.877 0 0 0 10.625 0zm-8.75 1.25h8.75c.345 0 .625.28.625.625V15h-10V1.875c0-.345.28-.625.625-.625zm8.75 17.5h-8.75a.625.625 0 0 1-.625-.625V16.25h10v1.875c0 .345-.28.625-.625.625z"/><path  d="M2.942 17.174a.553.553 0 0 1 0 .824.655.655 0 0 1-.885 0 .554.554 0 0 1 0-.825.655.655 0 0 1 .885 0z"/></symbol>

<symbol id="icon-twitter" viewBox="0 0 20 20"><path  d="M20 3.799a8.33 8.33 0 0 1-2.32.643l-.043.004a4.097 4.097 0 0 0 1.796-2.237l.008-.029a8.027 8.027 0 0 1-2.547.983l-.053.009A4.099 4.099 0 0 0 9.75 5.974v.002c0 .325.027.638.095.935-3.409-.166-6.425-1.8-8.451-4.288a4.072 4.072 0 0 0-.564 2.07v.001c0 1.42.732 2.679 1.821 3.407A4.025 4.025 0 0 1 .78 7.586l.02.011v.045a4.12 4.12 0 0 0 3.258 4.025l.027.005c-.312.085-.67.134-1.039.134h-.038.002c-.262 0-.527-.015-.776-.07.531 1.624 2.038 2.818 3.831 2.856a8.186 8.186 0 0 1-5.077 1.75H.98c-.336 0-.658-.016-.981-.057a11.435 11.435 0 0 0 6.253 1.84h.039-.002c7.545 0 11.67-6.25 11.67-11.668 0-.18-.006-.356-.015-.53a8.227 8.227 0 0 0 2.036-2.098l.019-.029z"/></symbol></defs></svg>



